<svg xmlns="http://www.w3.org/2000/svg" width="6" height="6" viewBox="0 0 6 6" shape-rendering="crispEdges">
<rect x="1" y="0" width="4" height="1" fill="#7A6E3A"/>
<rect x="0" y="1" width="1" height="1" fill="#7A6E3A"/>
<rect x="1" y="1" width="2" height="1" fill="#F5EFC0"/>
<rect x="3" y="1" width="1" height="1" fill="#E8DFA0"/>
<rect x="4" y="1" width="1" height="1" fill="#7A6E3A"/>
<rect x="0" y="2" width="1" height="1" fill="#7A6E3A"/>
<rect x="1" y="2" width="1" height="1" fill="#E8DFA0"/>
<rect x="2" y="2" width="1" height="1" fill="#C9B96A"/>
<rect x="3" y="2" width="2" height="1" fill="#E8DFA0"/>
<rect x="5" y="2" width="1" height="1" fill="#7A6E3A"/>
<rect x="0" y="3" width="1" height="1" fill="#7A6E3A"/>
<rect x="1" y="3" width="1" height="1" fill="#E8DFA0"/>
<rect x="2" y="3" width="1" height="1" fill="#C9B96A"/>
<rect x="3" y="3" width="2" height="1" fill="#E8DFA0"/>
<rect x="5" y="3" width="1" height="1" fill="#7A6E3A"/>
<rect x="0" y="4" width="1" height="1" fill="#7A6E3A"/>
<rect x="1" y="4" width="1" height="1" fill="#F5EFC0"/>
<rect x="2" y="4" width="2" height="1" fill="#E8DFA0"/>
<rect x="4" y="4" width="1" height="1" fill="#7A6E3A"/>
<rect x="1" y="5" width="4" height="1" fill="#7A6E3A"/>
</svg>
