<svg xmlns="http://www.w3.org/2000/svg" width="16" height="16" viewBox="0 0 16 16" shape-rendering="crispEdges">
<rect x="6" y="0" width="4" height="1" fill="#A97C50"/>
<rect x="4" y="1" width="8" height="1" fill="#A97C50"/>
<rect x="2" y="2" width="12" height="1" fill="#A97C50"/>
<rect x="1" y="3" width="14" height="1" fill="#A97C50"/>
<rect x="0" y="4" width="8" height="1" fill="#C99968"/>
<rect x="8" y="4" width="8" height="1" fill="#7C5638"/>
<rect x="0" y="5" width="8" height="1" fill="#C99968"/>
<rect x="8" y="5" width="8" height="1" fill="#7C5638"/>
<rect x="0" y="6" width="8" height="1" fill="#C99968"/>
<rect x="8" y="6" width="8" height="1" fill="#7C5638"/>
<rect x="0" y="7" width="8" height="1" fill="#C99968"/>
<rect x="8" y="7" width="8" height="1" fill="#7C5638"/>
<rect x="0" y="8" width="8" height="1" fill="#C99968"/>
<rect x="8" y="8" width="8" height="1" fill="#7C5638"/>
<rect x="1" y="9" width="7" height="1" fill="#C99968"/>
<rect x="8" y="9" width="7" height="1" fill="#7C5638"/>
<rect x="3" y="10" width="5" height="1" fill="#C99968"/>
<rect x="8" y="10" width="5" height="1" fill="#7C5638"/>
<rect x="4" y="11" width="4" height="1" fill="#C99968"/>
<rect x="8" y="11" width="4" height="1" fill="#7C5638"/>
<rect x="5" y="12" width="1" height="1" fill="#C99968"/>
<rect x="6" y="12" width="4" height="1" fill="#6B6248"/>
<rect x="10" y="12" width="1" height="1" fill="#7C5638"/>
<rect x="5" y="13" width="1" height="1" fill="#6B6248"/>
<rect x="6" y="13" width="4" height="1" fill="#EDE6D3"/>
<rect x="10" y="13" width="1" height="1" fill="#6B6248"/>
<rect x="6" y="14" width="1" height="1" fill="#6B6248"/>
<rect x="7" y="14" width="2" height="1" fill="#EDE6D3"/>
<rect x="9" y="14" width="1" height="1" fill="#6B6248"/>
<rect x="7" y="15" width="2" height="1" fill="#6B6248"/>
</svg>
